# xmcd
#
# Track frame offsets: 
#        150
#        10950
#        31537
#        47062
#        64162
#        84075
#        98925
#        128625
#        142575
#        159290
#        168393
#
# Disc length: 2472 seconds
#
# Revision: 0
# Processed by: cddbd v1.5.2PL0 Copyright (c) Steve Scherf et al.
# Submitted via: ExactAudioCopyFreeDBPlugin 1.0
#
DISCID=7509a60b
DTITLE=Juke House - A Juke House Christmas
DYEAR=2016
DGENRE=R&B
TTITLE0=Boogie Woogie Santa Clause
TTITLE1=Santa Claus Wants Some Lovin'
TTITLE2=Winter Wonderland
TTITLE3=Santa Claus is Coming on a Boogie Woogie Choo Choo Train
TTITLE4=Cool Yule
TTITLE5=Run Run Rudolph
TTITLE6=Merry Christmas Baby
TTITLE7=Zat You, Santa Claus?
TTITLE8=Christmas Swing
TTITLE9=Trim Your Tree
TTITLE10=What Are You Doing New Year's Eve?
EXTD=
EXTT0=
EXTT1=
EXTT2=
EXTT3=
EXTT4=
EXTT5=
EXTT6=
EXTT7=
EXTT8=
EXTT9=
EXTT10=
PLAYORDER=
